<svg width="840" height="620" viewBox="0 0 840 620" fill="none" xmlns="http://www.w3.org/2000/svg" role="img" aria-labelledby="title desc">
  <title id="title">Doğa manzarası</title>
  <desc id="desc">Sıcak gün ışığı altında dağlar, ağaçlar, göl ve küçük bir kır evi bulunan sakin doğa manzarası.</desc>
  <rect width="840" height="620" rx="16" fill="#FFF9EF"/>
  <path d="M0 0H840V360H0V0Z" fill="#DCEBE5"/>
  <circle cx="654" cy="118" r="58" fill="#F2C66D"/>
  <circle cx="654" cy="118" r="88" fill="#F2C66D" opacity=".18"/>
  <path d="M0 308L132 170L244 282L342 130L486 318L596 218L840 340V454H0V308Z" fill="#254C78"/>
  <path d="M0 352L112 230L224 330L314 206L446 360L566 254L840 392V468H0V352Z" fill="#7AA086"/>
  <path d="M310 206L342 130L410 219C384 203 356 198 310 206Z" fill="#F7F1E7" opacity=".9"/>
  <path d="M102 232L132 170L184 222C156 214 132 216 102 232Z" fill="#F7F1E7" opacity=".82"/>
  <path d="M0 430C122 396 225 408 336 446C451 486 548 512 670 480C742 461 793 426 840 390V620H0V430Z" fill="#D7E7D7"/>
  <path d="M0 486C104 450 208 454 318 494C434 536 542 548 666 514C746 492 794 462 840 432V620H0V486Z" fill="#285F4F" opacity=".22"/>
  <path d="M0 518C98 492 203 502 318 535C448 572 586 566 708 528C762 511 805 490 840 466V620H0V518Z" fill="#F6ECDD"/>
  <path d="M270 438C346 402 442 392 526 414C589 430 638 460 696 464C607 512 477 532 350 505C292 493 244 480 188 486C210 466 236 451 270 438Z" fill="#74B5E3" opacity=".75"/>
  <path d="M256 459C332 432 425 426 506 444C570 458 616 480 672 482C594 514 476 526 360 504C302 493 254 484 204 490C218 477 236 467 256 459Z" fill="#DCEBE5" opacity=".75"/>
  <path d="M126 382L154 332L184 382V452H126V382Z" fill="#FFFDF8" stroke="#1E2633" stroke-width="6" stroke-linejoin="round"/>
  <path d="M112 384L154 314L198 384" stroke="#8F2F3F" stroke-width="10" stroke-linecap="round" stroke-linejoin="round"/>
  <path d="M146 452V410H164V452" fill="#8F2F3F"/>
  <path d="M86 458H220" stroke="#1E2633" stroke-width="6" stroke-linecap="round" opacity=".18"/>
  <path d="M642 407C628 366 664 350 684 382C704 350 740 366 726 407C714 443 684 458 684 458C684 458 654 443 642 407Z" fill="#8F2F3F" opacity=".9"/>
  <path d="M602 520C612 479 658 462 692 492C721 466 770 478 782 520" stroke="#285F4F" stroke-width="10" stroke-linecap="round" opacity=".55"/>
  <path d="M92 520C106 480 152 472 178 504C205 470 250 482 262 520" stroke="#6C8B3B" stroke-width="10" stroke-linecap="round" opacity=".5"/>
  <path d="M552 372C552 332 583 299 622 299C661 299 692 332 692 372" stroke="#285F4F" stroke-width="16" stroke-linecap="round"/>
  <path d="M622 299V455" stroke="#6C8B3B" stroke-width="10" stroke-linecap="round"/>
  <path d="M582 364L622 398L664 360" stroke="#6C8B3B" stroke-width="8" stroke-linecap="round" stroke-linejoin="round"/>
</svg>
