<svg width="96" height="96" viewBox="0 0 96 96" fill="none" xmlns="http://www.w3.org/2000/svg">
  <rect width="96" height="96" rx="14" fill="#F7F1E7"/>
  <path d="M22 61C20.5 53.1 25.6 43.1 35.9 35.4C46.6 27.3 62.6 23.1 72.8 27.4C79.2 30.1 81.4 36 78.7 42.5C75.4 50.4 66.1 59.8 54.1 66.1C42.2 72.3 24.8 75.7 22 61Z" fill="#1F6B42"/>
  <path d="M27.8 60.4C27.3 55.3 31.5 48.7 39.6 42.2C48.5 35.1 61.3 31.1 70.5 32.9" stroke="#70A95B" stroke-width="6" stroke-linecap="round"/>
  <path d="M37 66.7C48.1 64.6 63.8 55.6 73.2 42.4" stroke="#D6E8A8" stroke-width="4" stroke-linecap="round" opacity=".9"/>
  <path d="M70.8 27.4C74.4 22.9 79.2 21 84 22" stroke="#6C8B3B" stroke-width="5" stroke-linecap="round"/>
  <ellipse cx="39.5" cy="50.5" rx="2.5" ry="2" fill="#E6F2B7" transform="rotate(-26 39.5 50.5)"/>
  <ellipse cx="49.5" cy="44.5" rx="2.3" ry="1.8" fill="#E6F2B7" transform="rotate(-26 49.5 44.5)"/>
  <ellipse cx="59.5" cy="39.5" rx="2.5" ry="1.9" fill="#E6F2B7" transform="rotate(-26 59.5 39.5)"/>
  <ellipse cx="45.5" cy="60.5" rx="2.2" ry="1.8" fill="#B9D87B" transform="rotate(-26 45.5 60.5)"/>
  <ellipse cx="56.5" cy="54.5" rx="2.2" ry="1.8" fill="#B9D87B" transform="rotate(-26 56.5 54.5)"/>
  <ellipse cx="67.3" cy="47.5" rx="2.1" ry="1.7" fill="#B9D87B" transform="rotate(-26 67.3 47.5)"/>
</svg>
