<svg width="96" height="96" viewBox="0 0 96 96" fill="none" xmlns="http://www.w3.org/2000/svg">
  <rect width="96" height="96" rx="14" fill="#F7F1E7"/>
  <path d="M14 70C26 58 35 57 47 66C59 75 70 69 82 58V82H14V70Z" fill="#D7E7D7"/>
  <path d="M18 61C28 48 37 44 48 50C59 56 68 51 80 39V64C67 76 56 80 43 70C32 62 25 65 18 73V61Z" fill="#285F4F" opacity=".22"/>
  <path d="M24 44L38 32L52 44V72H24V44Z" fill="#FFFDF8" stroke="#1E2633" stroke-width="4" stroke-linejoin="round"/>
  <path d="M20 45L38 29L56 45" stroke="#8F2F3F" stroke-width="6" stroke-linecap="round" stroke-linejoin="round"/>
  <path d="M34 72V55H43V72" fill="#8F2F3F"/>
  <path d="M59 52L70 42L81 52V72H59V52Z" fill="#FFFDF8" stroke="#1E2633" stroke-width="4" stroke-linejoin="round"/>
  <path d="M56 53L70 40L84 53" stroke="#254C78" stroke-width="5" stroke-linecap="round" stroke-linejoin="round"/>
  <path d="M67 72V60H74V72" fill="#254C78"/>
  <path d="M16 76H84" stroke="#6C8B3B" stroke-width="5" stroke-linecap="round"/>
</svg>
